<?xml version="1.0" encoding="UTF-8"?>
<svg xmlns="http://www.w3.org/2000/svg" viewBox="0 0 2048 2048">
  <path d="M 1021.00 463.00 L 614.00 1200.00 L 948.00 1200.00 L 1022.00 1292.00 L 1028.00 1290.00 L 1100.00 1200.00 L 1433.00 1202.00 L 1434.00 1197.00 L 1026.00 464.00 Z M 1068.00 1200.00 L 1069.00 1201.00 L 1069.00 1206.00 L 1068.00 1207.00 L 1067.00 1207.00 L 1067.00 1208.00 L 1061.00 1214.00 L 1061.00 1215.00 L 1059.00 1217.00 L 1059.00 1218.00 L 1057.00 1220.00 L 1055.00 1220.00 L 1054.00 1219.00 L 1054.00 1207.00 L 1055.00 1206.00 L 1055.00 1204.00 L 1056.00 1203.00 L 1056.00 1202.00 L 1058.00 1200.00 Z M 978.00 1200.00 L 988.00 1200.00 L 991.00 1203.00 L 991.00 1211.00 L 992.00 1212.00 L 992.00 1214.00 L 993.00 1215.00 L 993.00 1219.00 L 992.00 1220.00 L 990.00 1220.00 L 988.00 1218.00 L 988.00 1217.00 L 986.00 1215.00 L 986.00 1214.00 L 980.00 1208.00 L 980.00 1207.00 L 979.00 1207.00 L 978.00 1206.00 L 978.00 1204.00 L 977.00 1203.00 L 977.00 1201.00 Z M 1355.00 1159.00 L 1355.00 1162.00 L 1354.00 1163.00 L 1128.00 1163.00 L 1127.00 1162.00 L 1127.00 1160.00 L 1136.00 1149.00 L 1136.00 1147.00 L 1138.00 1146.00 L 1142.00 1139.00 L 1146.00 1135.00 L 1156.00 1119.00 L 1158.00 1118.00 L 1166.00 1105.00 L 1170.00 1101.00 L 1170.00 1099.00 L 1172.00 1098.00 L 1174.00 1095.00 L 1174.00 1093.00 L 1176.00 1092.00 L 1178.00 1089.00 L 1178.00 1087.00 L 1180.00 1086.00 L 1182.00 1083.00 L 1182.00 1081.00 L 1184.00 1080.00 L 1186.00 1077.00 L 1186.00 1075.00 L 1190.00 1071.00 L 1190.00 1069.00 L 1196.00 1061.00 L 1196.00 1059.00 L 1198.00 1058.00 L 1204.00 1049.00 L 1204.00 1047.00 L 1206.00 1046.00 L 1208.00 1043.00 L 1208.00 1041.00 L 1218.00 1027.00 L 1218.00 1025.00 L 1220.00 1024.00 L 1222.00 1021.00 L 1222.00 1019.00 L 1224.00 1018.00 L 1226.00 1015.00 L 1226.00 1013.00 L 1230.00 1009.00 L 1234.00 1003.00 L 1234.00 1001.00 L 1250.00 977.00 L 1252.00 977.00 L 1255.00 980.00 L 1255.00 982.00 L 1257.00 983.00 L 1257.00 985.00 L 1259.00 987.00 L 1261.00 993.00 L 1265.00 998.00 L 1265.00 1000.00 L 1267.00 1001.00 L 1267.00 1003.00 L 1269.00 1005.00 L 1271.00 1011.00 L 1275.00 1016.00 L 1275.00 1018.00 L 1277.00 1019.00 L 1277.00 1021.00 L 1283.00 1030.00 L 1283.00 1032.00 L 1285.00 1033.00 L 1285.00 1035.00 L 1287.00 1037.00 L 1289.00 1043.00 L 1293.00 1048.00 L 1295.00 1054.00 L 1297.00 1055.00 L 1297.00 1057.00 L 1305.00 1069.00 L 1305.00 1071.00 L 1307.00 1073.00 L 1309.00 1079.00 L 1315.00 1087.00 L 1315.00 1089.00 L 1317.00 1091.00 L 1319.00 1097.00 L 1323.00 1102.00 L 1323.00 1104.00 L 1325.00 1105.00 L 1327.00 1111.00 L 1331.00 1116.00 L 1331.00 1118.00 L 1335.00 1123.00 L 1335.00 1125.00 L 1339.00 1130.00 L 1339.00 1132.00 L 1341.00 1133.00 L 1343.00 1139.00 L 1347.00 1144.00 L 1349.00 1150.00 L 1351.00 1151.00 L 1351.00 1153.00 Z M 693.00 1160.00 L 696.00 1155.00 L 696.00 1153.00 L 698.00 1152.00 L 698.00 1150.00 L 702.00 1145.00 L 702.00 1143.00 L 704.00 1141.00 L 706.00 1135.00 L 708.00 1134.00 L 710.00 1128.00 L 714.00 1123.00 L 714.00 1121.00 L 722.00 1109.00 L 722.00 1107.00 L 724.00 1105.00 L 726.00 1099.00 L 730.00 1094.00 L 732.00 1088.00 L 736.00 1083.00 L 738.00 1077.00 L 746.00 1065.00 L 748.00 1059.00 L 752.00 1054.00 L 754.00 1048.00 L 758.00 1043.00 L 760.00 1037.00 L 762.00 1036.00 L 764.00 1030.00 L 768.00 1025.00 L 768.00 1023.00 L 770.00 1021.00 L 772.00 1015.00 L 774.00 1014.00 L 774.00 1012.00 L 776.00 1010.00 L 778.00 1004.00 L 782.00 999.00 L 782.00 997.00 L 784.00 995.00 L 786.00 989.00 L 788.00 988.00 L 788.00 986.00 L 792.00 981.00 L 792.00 979.00 L 794.00 977.00 L 796.00 977.00 L 803.00 987.00 L 803.00 989.00 L 805.00 992.00 L 807.00 993.00 L 807.00 995.00 L 813.00 1003.00 L 813.00 1005.00 L 817.00 1009.00 L 817.00 1011.00 L 819.00 1014.00 L 821.00 1015.00 L 821.00 1017.00 L 827.00 1025.00 L 827.00 1027.00 L 849.00 1059.00 L 849.00 1061.00 L 853.00 1065.00 L 853.00 1067.00 L 855.00 1070.00 L 857.00 1071.00 L 857.00 1073.00 L 871.00 1094.00 L 873.00 1095.00 L 873.00 1097.00 L 875.00 1100.00 L 877.00 1101.00 L 877.00 1103.00 L 885.00 1113.00 L 885.00 1115.00 L 889.00 1119.00 L 893.00 1126.00 L 895.00 1127.00 L 895.00 1129.00 L 897.00 1132.00 L 899.00 1133.00 L 903.00 1140.00 L 905.00 1141.00 L 911.00 1151.00 L 915.00 1155.00 L 915.00 1157.00 L 918.00 1160.00 L 918.00 1162.00 L 917.00 1163.00 L 694.00 1163.00 Z M 1022.00 561.00 L 1239.00 951.00 L 1191.00 1032.00 L 1099.00 1163.00 L 1060.00 1162.00 L 1062.00 1117.00 L 1068.00 1092.00 L 1090.00 1061.00 L 1091.00 1043.00 L 1106.00 1037.00 L 1122.00 996.00 L 1077.00 995.00 L 1066.00 984.00 L 1100.00 956.00 L 1114.00 935.00 L 1124.00 905.00 L 1124.00 868.00 L 1116.00 836.00 L 1098.00 800.00 L 1093.00 843.00 L 1081.00 862.00 L 1072.00 866.00 L 1077.00 827.00 L 1072.00 777.00 L 1052.00 731.00 L 1016.00 685.00 L 1012.00 687.00 L 1017.00 724.00 L 1009.00 758.00 L 987.00 792.00 L 945.00 834.00 L 929.00 861.00 L 923.00 885.00 L 925.00 914.00 L 937.00 944.00 L 960.00 970.00 L 980.00 983.00 L 968.00 995.00 L 926.00 995.00 L 925.00 1000.00 L 941.00 1037.00 L 956.00 1041.00 L 956.00 1058.00 L 981.00 1096.00 L 987.00 1162.00 L 947.00 1163.00 L 864.00 1048.00 L 807.00 956.00 Z" fill="currentColor"/>
</svg>
